<?xml version="1.0" standalone="no"?>
<!DOCTYPE svg PUBLIC "-//W3C//DTD SVG 1.1//EN" "http://www.w3.org/Graphics/SVG/1.1/DTD/svg11.dtd" >
<svg xmlns="http://www.w3.org/2000/svg">
<metadata>
Created by FontForge 20120731 at Tue Nov 10 17:40:01 2015
 By Ads
</metadata>
<defs>
<font id="iconfont" horiz-adv-x="1024" >
  <font-face 
    font-family="iconfont"
    font-weight="500"
    font-stretch="normal"
    units-per-em="1024"
    panose-1="2 0 6 3 0 0 0 0 0 0"
    ascent="812"
    descent="-212"
    x-height="792"
    bbox="0 -221 1297 812.222"
    underline-thickness="50"
    underline-position="-100"
    unicode-range="U+0078-E620"
  />
<missing-glyph horiz-adv-x="374" 
d="M34 0v682h272v-682h-272zM68 34h204v614h-204v-614z" />
    <glyph glyph-name=".notdef" horiz-adv-x="374" 
d="M34 0v682h272v-682h-272zM68 34h204v614h-204v-614z" />
    <glyph glyph-name=".null" horiz-adv-x="0" 
 />
    <glyph glyph-name="nonmarkingreturn" horiz-adv-x="341" 
 />
    <glyph glyph-name="x" unicode="x" horiz-adv-x="1001" 
d="M281 543q-27 -1 -53 -1h-83q-18 0 -36.5 -6t-32.5 -18.5t-23 -32t-9 -45.5v-76h912v41q0 16 -0.5 30t-0.5 18q0 13 -5 29t-17 29.5t-31.5 22.5t-49.5 9h-133v-97h-438v97zM955 310v-52q0 -23 0.5 -52t0.5 -58t-10.5 -47.5t-26 -30t-33 -16t-31.5 -4.5q-14 -1 -29.5 -0.5
t-29.5 0.5h-32l-45 128h-439l-44 -128h-29h-34q-20 0 -45 1q-25 0 -41 9.5t-25.5 23t-13.5 29.5t-4 30v167h911zM163 247q-12 0 -21 -8.5t-9 -21.5t9 -21.5t21 -8.5q13 0 22 8.5t9 21.5t-9 21.5t-22 8.5zM316 123q-8 -26 -14 -48q-5 -19 -10.5 -37t-7.5 -25t-3 -15t1 -14.5
t9.5 -10.5t21.5 -4h37h67h81h80h64h36q23 0 34 12t2 38q-5 13 -9.5 30.5t-9.5 34.5q-5 19 -11 39h-368zM336 498v228q0 11 2.5 23t10 21.5t20.5 15.5t34 6h188q31 0 51.5 -14.5t20.5 -52.5v-227h-327z" />
    <glyph glyph-name="uniE600" unicode="&#xe600;" 
d="M512 620q154 0 154 -154q0 -37 -9.5 -74.5t-22.5 -64.5t-26.5 -48.5t-22.5 -31.5l-9 -11l-19 -19v-26q0 -12 2.5 -24.5t8 -24.5t13 -23t18 -20t22.5 -15.5t26.5 -10t30.5 -3.5q37 0 59 -3t31 -10.5t11 -13.5t2 -18q-9 -9 -30.5 -18t-86.5 -18t-158 -9q-44 0 -83 2.5
t-63.5 6t-47.5 8.5t-33 8.5t-22.5 8t-13.5 4.5v7q0 12 2 18t11 13.5t31 10.5t59 3q54 0 87.5 37t33.5 84v26l-19 19q-4 4 -10 11t-21.5 31t-27 49.5t-21.5 63.5t-10 75q0 154 154 154zM512 684q-43 0 -80.5 -12t-69 -36.5t-50 -68t-18.5 -101.5q0 -32 6.5 -65t15.5 -59
t21.5 -51t23 -41.5t21.5 -31.5t15 -19.5t6 -7.5v-2q0 -1 -0.5 -5t-1.5 -8t-3 -9t-4.5 -9.5t-7 -9t-10 -7.5t-13.5 -5t-17 -2q-18 0 -28 -0.5t-30 -2.5t-32.5 -6t-28.5 -12t-25.5 -19t-16 -29t-6.5 -40l-1 -17q8 -56 142 -79q76 -13 186 -13q282 0 327 77q10 18 5 32
q0 22 -6.5 40t-15.5 29t-25 19t-28.5 12t-32.5 6t-30 2.5t-28 0.5q-16 0 -27.5 5.5t-15.5 14t-6.5 17t-2.5 14.5l1 6q4 5 11.5 13t26 36t33 58t26.5 76t12 92q0 60 -18.5 104t-50.5 68t-69 35t-80 11z" />
    <glyph glyph-name="uniE601" unicode="&#xe601;" 
d="M519 431q-58 0 -99 -41t-41 -99t41 -99t99 -41t99 41t41 99q0 29 -11 55t-30 44.5t-45 29.5t-54 11zM878 424l-22 4q-6 1 -6 2q0 2 4 8l14 19q21 30 17.5 68t-28.5 64l-42 42q-25 24 -64 27.5t-68 -16.5l-20 -13q-2 -2 -5 -3l-1 -1l-1 1q0 1 -1 2.5t-1 4.5l-4 27
q-6 36 -35.5 62t-65.5 26h-60q-36 0 -65.5 -26t-35.5 -62l-4 -25q0 -2 -0.5 -4t-1.5 -3v-2q-3 0 -7 3l-19 12q-28 20 -67 16.5t-64 -27.5l-42 -42q-26 -26 -29.5 -64t17.5 -68l13 -18q1 -3 3 -6v-1l-1 -1l-2 -0.5t-4 -1.5l-28 -4q-36 -6 -61 -37t-25 -67v-59q0 -36 25 -64
t61 -35l25 -4q2 0 4.5 -1t3.5 -1h1q0 -3 -3 -7l-13 -20q-21 -30 -17.5 -68t28.5 -63l42 -42q25 -25 64 -28.5t68 16.5l19 13q2 2 5 3l2 1q2 -2 3 -8l4 -19q6 -35 35.5 -58.5t65.5 -23.5h60q18 0 35 6.5t30.5 17t23 26t12.5 32.5l4 22q1 3 2 5v1q1 0 3 -1t5 -3l20 -15
q7 -4 13.5 -7.5t14 -6t15.5 -3.5t16 -1q44 0 73 29l42 42q26 26 29 64t-17 68l-15 21q-1 2 -3 5q0 1 -1 1q1 1 3 2t5 1l19 4q35 6 57.5 35.5t22.5 65.5v60q0 37 -22.5 66t-57.5 35zM519 88q-84 0 -144 59.5t-60 144t60 144t144 59.5q55 0 102 -27.5t74.5 -74t27.5 -102.5
q0 -84 -60 -143.5t-144 -59.5z" />
    <glyph glyph-name="uniE602" unicode="&#xe602;" 
d="M832 556h-640q-29 0 -46.5 -17.5t-17.5 -46.5v-384q0 -25 18 -44.5t46 -19.5h640q25 0 44.5 18t19.5 46v384q0 29 -17.5 46.5t-46.5 17.5zM768 492l-256 -154l-256 154h512zM192 108v346l307 -186q3 0 9.5 -3t9.5 -3q13 0 20 6l294 186v-346h-640z" />
    <glyph glyph-name="uniE603" unicode="&#xe603;" 
d="M855 667h-687q-37 0 -75.5 -24.5t-38.5 -55.5v-16q15 -13 41.5 -34.5t97 -76.5t128.5 -97t114.5 -76.5t75.5 -34.5q32 0 148.5 81t209.5 155t100 82v17q0 9 -3.5 18t-10.5 16.5t-16 15t-20 12.5t-22 9t-21.5 6.5t-20.5 2.5zM54 442v-452q42 -56 114 -56h687q19 0 38 6
t32 14t23.5 16.5t15.5 13.5l5 6v454q-13 -12 -35.5 -31.5t-86 -68.5t-119 -87t-117.5 -69t-100 -31q-36 0 -96.5 29.5t-121.5 71.5t-115.5 83.5t-89.5 71t-34 29.5z" />
    <glyph glyph-name="uniE604" unicode="&#xe604;" 
d="M991 237h-102q-7 -43 -24 -83t-42 -75l73 -72q9 -10 9 -23t-9 -23l-45 -45q-7 -6 -15 -8t-16 0t-15 8l-73 73q-74 -52 -157 -66v-102q0 -13 -9 -22.5t-23 -9.5h-63q-7 0 -13 2.5t-10 7t-6.5 10t-2.5 12.5v102q-86 15 -158 66l-72 -73q-7 -6 -15 -8t-16 0t-15 8l-45 45
q-9 10 -9 23t9 23l73 72q-52 72 -66 158h-102q-13 0 -22.5 9t-9.5 23v63q0 14 9.5 23t22.5 9h102q15 86 66 157l-73 73q-9 10 -9 23t9 23l45 45q10 9 23 9t23 -9l73 -73q23 16 48 29t52.5 22.5t56.5 14.5v102q0 9 4 16t11.5 11.5t16.5 4.5h63q9 0 16.5 -4.5t11.5 -11.5
t4 -16v-102q22 -4 43 -10t40.5 -14.5t38 -18.5t36.5 -23l72 73q10 9 23 9t23 -9l45 -45q6 -7 8 -15t0 -16t-8 -15l-73 -72q26 -35 42.5 -75t23.5 -83h102q13 0 22.5 -9t9.5 -23v-63q0 -9 -4.5 -16.5t-11.5 -11.5t-16 -4zM511.5 556q-105.5 0 -180.5 -75t-75 -180.5
t75 -180.5t180.5 -75t180.5 75t75 180.5t-75 180.5t-180.5 75z" />
    <glyph glyph-name="uniE605" unicode="&#xe605;" 
d="M124 781zM613 255q46 19 81 54q18 18 32 39t23 44q4 10 7.5 19.5t6 19t4 19.5t2 20.5t0.5 20.5q0 106 -75 181q-37 38 -82.5 56.5t-98.5 18.5q-105 0 -181 -75q-25 -25 -41.5 -53.5t-25 -60t-8.5 -67.5q0 -39 12 -77q12 -37 33 -68q22 -31 51 -54q4 -3 7 -5.5t6 -4.5
l8 -6q3 -2 6.5 -4t7.5 -4l8 -4l6 -4q4 -2 8 -3.5t8 -3.5q-81 -21 -146 -72q-66 -53 -104 -128q-38 -76 -38 -161q0 -19 3 -39h759q1 4 1 9t0.5 9.5t0.5 9.5v10q0 130 -79.5 231t-201.5 133zM686 257z" />
    <glyph glyph-name="uniE606" unicode="&#xe606;" 
d="M624 252q5 5 8.5 10.5t5.5 12t2 13.5v6l-2 6q0 3 -1 5.5t-3 4.5l-2 6l-4 4l-4 4l-160 144q-4 4 -9 6.5t-11 4t-12 1.5q-20 0 -34 -14t-14 -34q0 -10 4 -19.5t12 -16.5l67 -60h-291q-20 0 -34 -14t-14 -34t14 -34t34 -14h291l-67 -60q-16 -15 -16 -36q0 -20 14 -34t34 -14
q18 0 32 12zM896 289v368q0 20 -14 34t-34 14h-240q-20 0 -34 -14t-14 -34t14 -34t34 -14h192v-640h-192q-13 0 -24 -6.5t-17.5 -17.5t-6.5 -24q0 -20 14 -34t34 -14h240q20 0 34 14t14 34v368v0z" />
    <glyph glyph-name="uniE607" unicode="&#xe607;" 
d="M319 240h-127q-21 0 -40.5 -6.5t-35 -18.5t-27.5 -27.5t-18.5 -35t-6.5 -40.5v-127q0 -53 37.5 -90.5t90.5 -37.5h127q53 0 90.5 37.5t37.5 90.5v127q0 35 -17 64.5t-46.5 46.5t-64.5 17zM383 -15q0 -27 -18.5 -45.5t-45.5 -18.5h-127q-27 0 -45.5 18.5t-18.5 45.5v127
q0 11 3 20.5t9 17.5t14 14t17.5 9t20.5 3h127q27 0 45.5 -18.5t18.5 -45.5v-127zM830 750h-128q-26 0 -49.5 -10t-40.5 -27t-27.5 -41t-10.5 -50v-127q0 -53 37.5 -90.5t90.5 -37.5h128q52 0 89.5 37.5t37.5 90.5v127q0 53 -37.5 90.5t-89.5 37.5zM893 495
q0 -27 -18.5 -45.5t-44.5 -18.5h-128q-26 0 -45 18.5t-19 45.5v127q0 27 19 45.5t45 18.5h128q17 0 31.5 -8.5t23 -23t8.5 -32.5v-127zM319 750h-127q-53 0 -90.5 -37.5t-37.5 -90.5v-127q0 -53 37.5 -90.5t90.5 -37.5h127q53 0 90.5 37.5t37.5 90.5v127q0 35 -17 64.5
t-46.5 46.5t-64.5 17zM383 495q0 -27 -18.5 -45.5t-45.5 -18.5h-127q-27 0 -45.5 18.5t-18.5 45.5v127q0 27 18.5 45.5t45.5 18.5h127q27 0 45.5 -18.5t18.5 -45.5v-127zM830 240h-128q-26 0 -49.5 -10t-40.5 -27.5t-27.5 -41t-10.5 -49.5v-127q0 -53 37.5 -90.5t90.5 -37.5
h128q52 0 89.5 37.5t37.5 90.5v127q0 53 -37.5 90.5t-89.5 37.5zM893 -15q0 -27 -18.5 -45.5t-44.5 -18.5h-128q-26 0 -45 18.5t-19 45.5v127q0 18 8.5 32.5t23.5 23t32 8.5h128q17 0 31.5 -8.5t23 -23t8.5 -32.5v-127z" />
    <glyph glyph-name="uniE608" unicode="&#xe608;" 
d="M512 -212q104 0 198.5 40.5t163 109t109 163t40.5 198.5t-40.5 198.5t-109 163t-163 109t-198.5 40.5t-198.5 -40.5t-163 -109t-109 -163t-40.5 -198.5t40.5 -198.5t109 -163t163 -109t198.5 -40.5zM512 -119q-113 0 -209.5 56t-152.5 152t-56 210t56 210t152.5 152
t210 56t209.5 -56t152 -152t56 -210q0 -162 -109 -281q-105 -117 -261 -134q-24 -3 -48 -3zM512 276l163 186v-140l-163 -186l-162 186v140z" />
    <glyph glyph-name="uniE609" unicode="&#xe609;" 
d="M512 797q-104 0 -198 -40t-162.5 -108.5t-108.5 -162.5t-40 -198t40 -198t108.5 -162.5t162.5 -108.5t198 -40t198 40t162.5 108.5t108.5 162.5t40 198q0 83 -25.5 160.5t-72.5 140.5t-110 110t-140.5 72.5t-160.5 25.5zM513 -126q-113 0 -208.5 55.5t-150.5 150.5
t-55 208q0 84 32.5 161t88 132.5t132.5 88t161 32.5q112 0 207.5 -55.5t151 -150.5t55.5 -208q0 -84 -33 -161t-88 -132.5t-132 -88t-161 -32.5zM671 291q-2 20 -16 33l-187 172q-15 14 -35 13t-33 -15q-7 -7 -10.5 -16.5t-3 -18.5t4.5 -18t11 -16l149 -137l-149 -137
q-6 -5 -9.5 -12t-5 -14.5t-0.5 -15t4 -14.5t9 -13q13 -15 33.5 -15.5t34.5 13.5l187 172q7 7 11 15.5t5 17.5v2v1v1v2v0zM671 291z" />
    <glyph glyph-name="uniE60A" unicode="&#xe60a;" 
d="M826.5 619.5q-51.5 51.5 -116 84t-132.5 42t-136.5 0t-132.5 -42t-116 -83.5q-86 -86 -116.5 -201.5t0 -230.5t116.5 -201t201.5 -117t231 0t200.5 117q52 51 84.5 115.5t42 132.5t0 136.5t-42 132.5t-84 115.5zM766 136l-89 -89l-165 164l-164 -164l-89 89l164 165
l-164 164l89 89l164 -164l165 164l89 -89l-164 -164z" />
    <glyph glyph-name="uniE60B" unicode="&#xe60b;" 
d="M384 166l181 51l-130 129zM867 518l-129 128l-284 -282l129 -129zM830 42q0 -34 -24 -57.5t-57 -23.5h-486q-33 0 -57 23.5t-24 57.5v485q0 34 24 57.5t57 23.5h324l81 81h-432q-36 0 -67 -18t-49 -49t-18 -68v-539q0 -56 39.5 -95.5t94.5 -39.5h540q56 0 95.5 39.5
t39.5 95.5v431l-81 -81v-323zM928 626l-81 80q-10 10 -25 9.5t-25 -10.5l-39 -39l129 -128l39 38q7 7 9.5 16t0.5 18t-8 16z" />
    <glyph glyph-name="uniE60C" unicode="&#xe60c;" 
d="M512 -143q-59 0 -115 15t-106.5 44t-91.5 71q-63 62 -96.5 143t-33.5 169.5t33.5 169.5t96.5 143q41 42 91.5 71t106.5 44t115 15q35 0 69.5 -5.5t67.5 -16t63.5 -26t59 -36.5t52.5 -46q63 -62 96.5 -143t33.5 -169.5t-33.5 -169.5t-96 -143.5t-143.5 -96t-169 -33.5z
M512 658q-72 0 -137.5 -27t-116 -78t-77.5 -116.5t-27 -137t27 -137t77 -116.5q34 -33 74.5 -56.5t86 -36t93.5 -12.5q71 0 136.5 27.5t116.5 78t78 116t27 137t-27 137t-78 116.5q-25 25 -54.5 44.5t-61.5 33t-67 20.5t-70 7zM512 75q-18 0 -30.5 12.5t-12.5 30.5v364
q0 17 12.5 29.5t30 12.5t30 -12.5t12.5 -29.5v-364q0 -9 -3.5 -17t-9 -13.5t-13.5 -9t-16 -3.5zM694 257h-364q-18 0 -30.5 12.5t-12.5 30t12.5 30t30.5 12.5h364q17 0 29.5 -12.5t12.5 -29.5q0 -5 -1 -9t-2.5 -8t-4.5 -7l-4 -6q-3 -3 -6.5 -5.5t-7.5 -4t-8 -2.5t-8 -1z" />
    <glyph glyph-name="uniE60D" unicode="&#xe60d;" 
d="M507 631l-154 97l-273 -153l114 -124zM507 269l-313 180l-112 -141l294 -184zM510 269l136 -144l298 179l-122 145zM650 69l-142 144l-129 -145l-180 119v-112l312 -193l315 190v115zM944 575l-281 153l-153 -97l312 -180z" />
    <glyph glyph-name="uniE60E" unicode="&#xe60e;" 
d="M48 611q-8 -13 -8 -22v-576q0 -10 8 -22l312 310zM982 612l-313 -311l313 -311q1 1 5.5 6t6.5 9t2 8v576q0 3 -1.5 6.5t-3.5 6t-5 5.5t-4 5zM634 282l-241 -1l-15 5l-310 -306q1 -1 7 0t8 1h860q1 0 7.5 -1t6.5 0l-310 308zM391 319l241 1l15 -5l310 305q-2 1 -4 0.5
t-5 -1.5t-5 -1h-860q-2 0 -7 1.5t-8 0.5l310 -307z" />
    <glyph glyph-name="uniE60F" unicode="&#xe60f;" 
d="M940 -9q-2 61 -30.5 114t-76.5 89v224q0 64 -28 120t-77 94t-110 51v5q0 17 -5.5 33.5t-15.5 29.5t-23 23t-29.5 15.5t-33.5 5.5q-30 0 -54.5 -14.5t-39 -39t-14.5 -53.5v-5q-93 -20 -154 -94t-61 -171v-224q-48 -36 -76 -89t-31 -114h107v-1h645v1h107zM488 -204h27
q52 0 91 35t45 86h-281q2 -17 8 -32.5t15.5 -29t22 -24.5t26.5 -18.5t31 -12t34 -4.5h-19z" />
    <glyph glyph-name="uniE610" unicode="&#xe610;" 
d="M286 413l-46 -45l272 -272l272 272l-46 45l-226 -226z" />
    <glyph glyph-name="uniE611" unicode="&#xe611;" horiz-adv-x="1298" 
d="M672 344l85 85l-116 116l-85 -85q-15 8 -31.5 15t-32.5 12v120h-164v-120q-33 -10 -63 -26l-92 91l-118 -118l91 -91q-8 -15 -14.5 -31t-10.5 -32h-121v-164h121q9 -34 26 -65l-85 -85l116 -116l85 85q31 -17 65 -26v-121h164v121q16 4 32 10.5t31 14.5l91 -91l118 118
l-91 92q16 30 26 63h120v164h-120q-10 33 -27 64zM410 61q-37 0 -68.5 18.5t-50 50t-18.5 68.5q0 16 3.5 31t10.5 28.5t16 25.5t21 21t25.5 16t29 10.5t31.5 3.5q56 0 96 -40t40 -96q0 -23 -7 -43.5t-19.5 -37.5t-29 -29.5t-37.5 -19.5t-43 -7zM1297 484v110h-80
q-7 22 -18 43l57 56l-78 78l-56 -57q-11 6 -21.5 10t-21.5 8v80h-110v-80q-7 -2 -14 -5l-14 -6q-7 -3 -14 -7l-61 61l-78 -79l61 -60q-6 -10 -10.5 -20.5t-7.5 -21.5h-80v-110h80q7 -22 18 -43l-57 -57l78 -77l56 57q21 -11 43 -18v-80h110v80q22 6 42 17l60 -60l79 78
l-61 61q12 20 18 42h80zM1024 448q-12 0 -24 3t-22 9t-18.5 14.5t-14 18.5t-9 22t-3.5 24q0 25 12 46t33 33t46 12t46 -12t33 -33t12 -46q0 -19 -7 -35.5t-19.5 -29t-29 -19.5t-35.5 -7z" />
    <glyph glyph-name="uniE612" unicode="&#xe612;" 
d="M956 421q0 74 -43.5 137t-118 99.5t-162.5 36.5q-65 0 -124.5 -21t-103.5 -58.5t-69 -85.5q25 3 49 3q36 56 102.5 89t145.5 33q118 0 201 -68.5t83 -164.5q0 -97 -85 -165q-6 -5 -10 -12t-5 -15t1 -16l17 -59l-83 32q-3 -17 -9 -40l153 -59l-39 137q47 38 73.5 89
t26.5 108zM390 492q-88 0 -163 -36.5t-118 -99.5t-43 -137q0 -57 26.5 -108t73.5 -89l-39 -137l181 70q20 -5 40.5 -7t41.5 -2q88 0 162.5 36.5t117.5 99.5t43 137t-43 137t-117.5 99.5t-162.5 36.5zM390 -14q-18 0 -36.5 2t-36.5 6q-5 1 -9 1t-7.5 -0.5t-7.5 -1.5l-105 -41
l17 59q3 12 -0.5 23.5t-13.5 18.5q-85 69 -85 166q0 96 83 164.5t200.5 68.5t200.5 -68.5t83 -164.5q0 -63 -38 -116.5t-103.5 -85t-141.5 -31.5z" />
    <glyph glyph-name="uniE613" unicode="&#xe613;" 
d="M745 669q13 14 13 33t-13 32q-9 9 -21 12.5t-23.5 0t-20.5 -12.5l-396 -401q-14 -14 -14 -33t14 -33l396 -401q14 -14 32.5 -14t32 13.5t13.5 32.5t-13 33l-351 369l351 369v0zM745 669z" />
    <glyph glyph-name="uniE614" unicode="&#xe614;" 
d="M652 117q-5 0 -10 4q-11 10 -2 21l99 121q62 79 62 179q0 119 -84.5 203.5t-204 84.5t-204.5 -84.5t-85 -203.5q0 -124 91 -210l97 -88q4 -4 4.5 -10.5t-3.5 -11.5q-11 -11 -22 -1l-97 89q-24 22 -42 48t-31 55q-27 61 -27 129q0 132 93.5 225.5t225.5 93.5
q64 0 122.5 -24t103.5 -69q23 -23 40.5 -49t29 -55t18 -59.5t6.5 -62.5q0 -11 -1 -22t-2.5 -21.5t-3.5 -21.5t-5 -21t-7 -21q-17 -49 -50 -91l-99 -121q-5 -6 -12 -6zM377 12q-13 0 -15 13q0 3 0.5 6t2.5 5.5t4.5 4t5.5 1.5l281 41q7 1 12 -2.5t6 -9.5q0 -5 -1.5 -8.5
t-4.5 -6t-7 -3.5l-282 -41h-2zM382 -64q-13 0 -15 13q-1 4 1 8t5 6.5t7 2.5l281 41q7 1 12 -2.5t6 -10t-3 -11.5t-10 -6l-282 -41h-2zM513 -165q-32 0 -59 16t-42 44q-2 4 -2 7.5t2.5 7.5t5.5 6q14 7 21 -6.5t18.5 -23.5t26 -15t29.5 -5q22 0 41.5 11t30.5 31q4 5 10 6.5
t11 -1.5q14 -8 6 -21q-15 -26 -42 -41.5t-57 -15.5zM331 420q-7 0 -11.5 4.5t-4.5 10.5q0 82 58 139.5t139 57.5q7 0 11.5 -4.5t4.5 -10.5q0 -4 -2.5 -8t-6 -6t-7.5 -2q-68 0 -117 -48.5t-49 -117.5q-2 -14 -15 -15z" />
    <glyph glyph-name="uniE615" unicode="&#xe615;" 
d="M691 243q62 44 98 111t36 146q0 129 -91.5 220.5t-221.5 91.5q-36 0 -71 -8t-66 -23.5t-58 -37t-48.5 -48.5t-37 -58t-23.5 -66t-8 -71q0 -79 36 -146t98 -110q-139 -55 -225.5 -179t-86.5 -277h88v1q0 101 47 188t128 142.5t179 67.5q56 5 101 -1q2 0 3 -1h1
q146 -21 245 -133.5t99 -262.5v-1h-1h90q0 102 -40 193.5t-110 159t-161 102.5zM513 265q-97 0 -166 69t-69 165.5t69 165.5t165.5 69t165.5 -69t69 -165.5t-69 -165.5t-165 -69zM513 265z" />
    <glyph glyph-name="uniE616" unicode="&#xe616;" 
d="M786 809h-535q-7 0 -14 -2.5t-12.5 -6.5t-10 -9.5t-6.5 -12.5t-2 -15v-55v-22v-715v-51v-83q0 -19 13 -32.5t32 -13.5h78h168h44h167h78q19 0 32.5 13.5t13.5 32.5v107v27v715v45v32q0 13 -6 23.5t-16.5 16.5t-23.5 6zM580 754q2 2 4 3l6 2q2 1 5 1t5 -1l6 -2q2 -1 4 -3
q3 -4 4.5 -7.5t1.5 -8t-1.5 -8t-4.5 -6.5q-6 -7 -15 -7t-15 6q-6 7 -6 16q0 8 6 15zM457 760h59q8 0 14.5 -6.5t6.5 -15t-6.5 -15t-14.5 -6.5h-59q-6 0 -11 3t-8 8t-3 10q0 17 17 21q3 1 5 1zM519 -166q-14 0 -25 6.5t-17.5 18t-6.5 24.5q0 21 14 35.5t34.5 14.5t35 -14.5
t14.5 -35t-14.5 -35t-34.5 -14.5zM787 -29h-536v698h536v-698z" />
    <glyph glyph-name="uniE617" unicode="&#xe617;" 
d="M499 467q20 0 32 12t12 32q0 10 -3.5 18t-9 13.5t-13.5 9t-18 3.5q-21 0 -37 -12.5t-16 -31.5q0 -4 1 -7l2 -8q1 -3 3 -6t5 -6t6 -5l6 -4q3 -2 6.5 -3.5t7.5 -2.5t8 -1.5t8 -0.5zM253 555q-21 0 -37 -12.5t-16 -31.5t16 -31.5t37 -12.5q20 0 32 12t12 32q0 13 -5.5 23
t-15.5 15.5t-23 5.5zM1024 186q0 104 -84 182t-203 87v3v3q-24 111 -130 185t-240 74q-151 0 -259 -92q-103 -88 -108 -212v-11q0 -142 138 -243l-32 -94q-1 -3 -0.5 -6t1.5 -6t4 -5q2 -2 5 -3t5 -1q4 0 8 2l117 59l15 -3q18 -4 27.5 -6t24 -4t27.5 -3t27 -1h11q6 0 12 0.5
t11 0.5q3 0 5 1t3.5 2t2.5 3q33 -81 114.5 -132t183.5 -51q37 0 103 17l91 -50q2 -1 3.5 -1.5t3.5 -0.5l11 3q8 7 5 18l-23 77q120 95 120 208zM399 124q-16 -1 -32 -1q-13 0 -25 1t-25.5 3t-23 3.5t-26.5 5.5l-20 4q-5 1 -10 -1l-88 -45l23 69q0 2 0.5 4.5t0 4t-1.5 3.5
t-2.5 3.5t-2.5 3.5q-134 93 -134 223q0 77 45 142t122 103t168 38q60 0 117.5 -17.5t102 -48.5t76 -74t42.5 -92q-63 0 -120.5 -22t-99 -58t-66 -86t-24.5 -104q0 -11 1 -21.5t3 -20.5t5 -21q-4 1 -5 1zM875 -4q-8 -6 -5 -17l15 -50l-62 34q-2 1 -4 1.5t-4 0.5t-4 -1
q-67 -17 -101 -17q-117 0 -200 70t-83 169q0 39 14.5 75.5t40.5 65.5t61 51.5t78 34.5t89 12q56 0 108 -19.5t90 -51.5t61 -76t23 -92q0 -49 -30 -98t-87 -92zM613 300q-13 0 -24 -11t-11 -24t11 -24t24 -11q19 0 31.5 10.5t12.5 24.5t-12.5 24.5t-31.5 10.5zM806 300
q-13 0 -24 -11t-11 -24t11 -24t24 -11q19 0 31.5 10.5t12.5 24.5q0 23 -26 32q-9 3 -18 3z" />
    <glyph glyph-name="uniE618" unicode="&#xe618;" 
d="M817 351h-538h-21v101q0 24 4 46.5t11.5 43t18.5 39.5t25.5 35.5t31 30.5t35.5 25t39.5 19t43 12t45.5 4q86 0 153.5 -51.5t90.5 -132.5q1 -7 4 -14t7.5 -12.5t11 -10t13.5 -6.5t15 -2q5 0 10 1t9.5 3t8.5 4.5t7.5 6t6.5 7.5t5 8.5t3 10t1 10.5q0 7 -2 14q-14 57 -47 106
t-77.5 84t-101.5 55.5t-118 20.5q-58 0 -112.5 -18t-98 -51t-76.5 -77t-51 -98.5t-18 -112.5v-112q-14 -6 -25.5 -14.5t-21 -20t-16 -24t-10 -27.5t-3.5 -30v-306q0 -52 37 -89.5t90 -37.5h610q53 0 90 37.5t37 89.5v306q0 34 -17 63.5t-46 46.5t-64 17zM843 -56
q0 -21 -15 -36t-36 -15h-560q-21 0 -36 15t-15 36v254q0 21 15 36t36 15h560q10 0 19.5 -4t16.5 -11t11 -16.5t4 -19.5v-254z" />
    <glyph glyph-name="uniE619" unicode="&#xe619;" 
d="M896 -116h-768q-53 0 -90.5 37.5t-37.5 90.5v576q0 53 37.5 90.5t90.5 37.5h768q53 0 90.5 -37.5t37.5 -90.5v-576q0 -35 -17 -64.5t-46.5 -46.5t-64.5 -17zM160 652l352 -306l352 306h-704zM960 588q0 27 -20 47l-428 -367l-428 367q-20 -20 -20 -47v-576q0 -13 5 -25
t13.5 -20.5t20.5 -13.5t25 -5h768q26 0 45 19t19 45v576z" />
    <glyph glyph-name="uniE61A" unicode="&#xe61a;" 
d="M955 590q-6 5 -13 5h-859q-8 0 -13 -5q-5 -6 -5 -13v-554q0 -8 5 -13t13 -5h859q4 0 7 1.5t6 3.5q5 5 5 13v554q0 4 -1.5 7t-3.5 6zM930 35h-835v530h835v-530zM542 428h313v-30h-313v30zM542 330h208v-30h-208v30zM281 267q24 -14 52 -14t52 14q40 -15 64.5 -50
t25.5 -79h22q0 24 -7 46t-19 40.5t-28.5 33.5t-36.5 25q32 30 32 75q0 43 -31 73.5t-74 30.5t-73.5 -30.5t-30.5 -73.5q0 -45 32 -75q-41 -21 -66 -59.5t-26 -85.5h23q0 44 25 79t64 50zM251 358q0 22 11 40.5t30 29.5t41 11q34 0 58 -24t24 -57q0 -20 -8.5 -37t-24.5 -29
t-36 -15q-7 -1 -13 -1t-13 1q-20 3 -36 15q-33 25 -33 66z" />
    <glyph glyph-name="uniE61B" unicode="&#xe61b;" horiz-adv-x="1025" 
d="M512 748q91 0 174 -35.5t142.5 -95.5t95 -143t35.5 -174q0 -18 -1 -36t-4 -35.5t-7.5 -34.5t-10 -34t-12.5 -34q-34 -80 -96 -142t-142 -96q-28 -12 -56.5 -19.5t-58 -11.5t-59.5 -4q-91 0 -174 35q-80 34 -142 96t-96 142q-36 83 -36 174t35.5 174t95.5 143t143 95.5
t174 35.5zM512 812q-104 0 -199 -40.5t-163.5 -109t-109 -163.5t-40.5 -199t40.5 -198.5t109 -163.5t163.5 -109.5t199 -40.5t198.5 40.5t163.5 109.5t109.5 163.5t40.5 198.5t-40.5 199t-109.5 163.5t-163.5 109t-198.5 40.5zM602 250l82 -98l115 -131l-47 -35l-10 10l-2 4
l-2 2q-1 2 -2.5 4t-2.5 3.5t-3 3.5l-30 35l-123 -4q-71 -3 -166 -9q-24 -2 -42.5 -2.5t-31.5 -2.5q-14 0 -33 -3q-9 -1 -20 -3t-23 -6l-24 53q16 5 30 15t24 20q24 27 47 56.5t45 61.5q45 65 88 141l58 -25q-63 -102 -189 -262l322 14q-22 31 -49 62q-25 29 -54 64zM613 613
q35 -92 92 -160t137 -115q-10 -10 -20 -22.5t-21 -26.5q-85 59 -143.5 136t-93.5 170zM182 316q76 56 132.5 127t93.5 159l52 -21q-45 -95 -104 -170.5t-133 -135.5q-16 21 -41 41zM182 316z" />
    <glyph glyph-name="uniE61C" unicode="&#xe61c;" 
d="M930 581q-7 23 -15.5 46.5t-16 41t-14 32t-10.5 22.5l-4 7h-716q-4 -7 -10.5 -21t-22 -53t-26.5 -75q-52 -168 -15 -249q24 -50 78 -63q18 -5 36 -5q20 0 40 6t38 18q14 9 26.5 20.5t24.5 26t23 32.5q18 28 33 63q6 -11 12.5 -22.5t13.5 -23.5q26 -44 47 -69
q12 -14 22 -23t19.5 -13t18.5 -4q28 0 61 40q21 25 47 69q7 12 13.5 23.5t12.5 22.5q7 -16 15 -32t18 -31q34 -53 74 -79q37 -24 78 -24q9 0 18 1.5t18 3.5q54 13 78 63q37 81 -15 249zM897 355l-3 -7q-2 -3 -4.5 -6t-4.5 -5.5t-5 -4.5t-5.5 -4t-6 -3.5t-7 -2.5t-7.5 -2
q-71 -18 -130 74q-9 14 -17.5 30.5t-13.5 29t-9.5 25t-6 16.5t-2.5 7l-18 66l-31 -62q-21 -44 -47 -88q-5 -9 -14 -24q-38 -65 -53 -65q-10 0 -19 12t-33 52q-9 16 -14 25q-25 43 -47 88l-31 62l-18 -66q-16 -56 -48 -107q-60 -93 -131 -75q-30 7 -43 34q-15 33 -9 93
q2 26 8.5 55.5t17.5 62.5q6 21 14.5 44t14.5 38.5t13 30.5h651q7 -15 13 -30.5t14 -38t15 -43.5q21 -67 26 -119q6 -60 -9 -92zM869 221h52v-209q0 -58 -40.5 -98.5t-97.5 -40.5h-541q-57 0 -97.5 40.5t-40.5 98.5v209h52v-209q0 -36 25.5 -61t60.5 -25h541q35 0 60.5 25
t25.5 61v209z" />
    <glyph glyph-name="uniE61D" unicode="&#xe61d;" 
d="M917 -84h-810q-45 0 -76 33t-31 80v542q0 47 31 80t76 33h810q45 0 76 -33t31 -80v-68v-135v-339q0 -47 -31 -80t-76 -33zM981 539q0 41 -27.5 70.5t-66.5 29.5h-750q-39 0 -66.5 -29.5t-27.5 -70.5v-36h938v36zM43 368v-307q0 -41 27.5 -70.5t66.5 -29.5h750
q39 0 66.5 29.5t27.5 70.5v307h-938zM661 29l64 136h214l-64 -136h-214z" />
    <glyph glyph-name="uniE61E" unicode="&#xe61e;" 
d="M678 646h-483q-9 0 -14.5 -6t-5.5 -14.5t5.5 -14.5t14.5 -6h483q9 0 14.5 6t5.5 14t-6 14.5t-14 6.5zM663 493q0 7 -6.5 13.5t-14.5 6.5h-454q-2 0 -4.5 -0.5t-4.5 -1.5t-3.5 -2.5t-3 -3.5t-2.5 -4l-2 -4q-1 -2 -1 -4q0 -14 15 -20q3 -1 6 -1h457q8 0 13 5.5t5 15.5z
M188 368q-14 0 -20 -15q-1 -3 -1 -6q0 -8 6.5 -14t14.5 -6h293q8 0 14.5 6t6.5 14t-6.5 14.5t-14.5 6.5h-293zM415 225h-230q-5 0 -9.5 -3t-7.5 -8t-3 -10t3 -9.5t7.5 -7.5t9.5 -3h230q8 0 14 6.5t6 13.5q0 8 -5.5 14.5t-14.5 6.5zM93 -18v784q0 8 8 8h638q2 0 3.5 -1t3 -3
t1.5 -4v-378h41v378q0 12 -6.5 23t-17 17t-22.5 6h-639q-11 1 -20.5 -2.5t-16 -10t-10.5 -15.5t-4 -18v-787q0 -19 13.5 -32t32.5 -13h307v38v2h-307q-4 2 -5 8zM829 -209h-3q-19 0 -28 17l-82 149h-13l-79 -146q-3 -9 -11.5 -13.5t-18.5 -4.5h-3q-23 6 -30 23l-23 61
l-67 -15q-23 -5 -36 13q-14 19 -2 38l92 169q-13 28 -13 74q0 82 58.5 140.5t140.5 58.5q16 0 32 -2.5t31 -7.5t29 -12t27 -16.5t24 -20.5q59 -59 59 -140q0 -18 -3.5 -35.5t-9.5 -36.5l92 -171q2 -4 3.5 -8t1.5 -8t-1 -8t-2.5 -7.5t-4.5 -6.5q-5 -8 -15.5 -11.5t-19.5 -1.5
l-67 15l-25 -63q-4 -10 -13 -16.5t-20 -6.5zM739 -3l90 -163l33 89l94 -23l-97 182l5 7q10 20 16 64q0 8 -1 16t-2.5 16t-3.5 15.5t-5 15t-6.5 14.5t-7.5 13.5t-9.5 12.5t-10.5 12q-16 15 -34 26t-39 16.5t-42 5.5q-67 0 -114.5 -46.5t-49.5 -113.5q1 -36 16 -67l5 -7
l-100 -179l95 20l30 -89l90 163l18 -2h10h7zM711 -33q-83 0 -138 58q-56 57 -56 138q0 53 26 97.5t70.5 70.5t97.5 26q20 0 39 -3.5t36.5 -11t33.5 -18.5t29 -25q56 -57 56 -138q0 -53 -26 -97.5t-70.5 -70.5t-97.5 -26zM711 316q-65 0 -110.5 -45t-45.5 -110q1 -68 46 -110
q47 -46 110 -46v-20v20q65 0 110.5 45.5t45.5 110.5q0 31 -12 60t-34 50q-43 45 -110 45z" />
    <glyph glyph-name="uniE61F" unicode="&#xe61f;" 
d="M166 100q0 -92 57.5 -110.5t285.5 -18.5h2h2q228 0 285.5 18.5t57.5 110.5q0 30 -9 68t-26 78t-40.5 80t-54 75t-63.5 62.5t-72.5 43.5t-79.5 16q-68 0 -134 -46t-111 -112.5t-72.5 -138.5t-27.5 -126zM510 462q40 0 74 -19.5t53.5 -53.5t19.5 -74q0 -62 -43 -105
t-104 -43q-24 0 -46.5 7.5t-40.5 21t-31.5 32t-21 41t-7.5 46.5q0 15 3 29.5t8.5 27.5t13.5 25t18 22t22 18t25 13.5t27.5 8.5t29.5 3zM818 354q-25 39 -54.5 72.5t-67.5 63t-85.5 47t-98.5 17.5t-99.5 -18.5t-87 -49t-67.5 -63.5t-49 -69q-20 -31 -50.5 -30t-46.5 30
q-7 14 -9 40.5t13 68t52 77t126 61.5t218 26q94 0 168 -14t116.5 -36.5t71 -50.5t39 -55.5t13 -53t-1 -41.5t-7.5 -22q-14 -20 -35 -23.5t-37 4t-21 19.5z" />
    <glyph glyph-name="uniE620" unicode="&#xe620;" horiz-adv-x="1026" 
d="M512 811q104 0 198.5 -40.5t163 -109t109 -163t40.5 -198.5q0 -84 -25.5 -162t-73 -141t-110.5 -110t-141 -73t-161 -26q-104 0 -199 40.5t-163.5 109t-109 163.5t-40.5 199q0 83 26 161t73 141t110 110.5t141 73t162 25.5zM512 -98q108 0 199.5 53t145 145t53.5 200
t-53.5 199.5t-145 145t-199.5 53.5t-200 -53.5t-145 -145t-53 -199.5q0 -156 106 -271q103 -111 254 -126q19 -1 38 -1zM288 355l149 -150l249 277q16 17 39.5 17t40.5 -16.5t17 -40t-17 -40.5q-223 -251 -249 -277q-36 -37 -79 -37.5t-81 37.5l-149 149q-11 11 -15 25.5
t0 29.5t15 26q8 8 18.5 12t21.5 4t21.5 -4t18.5 -12z" />
  </font>
</defs>
</svg>
